<svg id="Layer_1" data-name="Layer 1" xmlns="http://www.w3.org/2000/svg" viewBox="0 0 376.88 310.69"><path d="M365.18,381.66H143.5A44.63,44.63,0,0,1,99,337.16V283.8a51.65,51.65,0,0,0-17.37-38.65L63.16,228.77,80.9,213.61A51.68,51.68,0,0,0,99,174.34V115.48A44.64,44.64,0,0,1,143.5,71H365.18a44.64,44.64,0,0,1,44.51,44.51v59.86a51.63,51.63,0,0,0,16.13,37.5L440,226.32,422.4,246.56a51.63,51.63,0,0,0-12.71,33.94v56.66A44.63,44.63,0,0,1,365.18,381.66Z" transform="translate(-63.16 -70.97)" fill="#838bc5"/></svg>