<svg id="Layer_1" data-name="Layer 1" xmlns="http://www.w3.org/2000/svg" viewBox="0 0 312.85 384.81"><path d="M388.15,166.92c0-18.15-23.28-32.93-52.33-33.49-3-19-20.95-33.56-42.61-33.56a48.86,48.86,0,0,0-5.85.37,37.71,37.71,0,0,0-62.25-22.07c-.66-15.92-12-28.59-26-28.59-14.36,0-26,13.46-26,30.06,0,.58,0,1.16,0,1.74h0c-11.49,0-20.81,15.65-20.81,35,0,.28,0,.55,0,.83a34.49,34.49,0,0,0-12.44-2.28c-15.48,0-28,9.84-28,22,0,8.35,6,15.62,14.72,19.33,1.23,6.82,6.57,12.5,13.82,15.16a26.51,26.51,0,0,0-.51,5.14c0,17.06,16.24,30.89,36.28,30.89a40.59,40.59,0,0,0,20.81-5.6c16.78,11.48,43.35,18.89,73.26,18.89,31.82,0,59.86-8.39,76.36-21.14C370.42,196.05,388.15,182.77,388.15,166.92Z" transform="translate(-76.3 -48.58)" fill="#a3a3a3" stroke="#000" stroke-miterlimit="10" stroke-width="2"/><path d="M155.62,234c-2.35,6.61-7.68,10.75-11.9,9.25s-5.74-8.07-3.38-14.69,24.79-51.2,25.23-46.75C166.25,188.64,158,227.42,155.62,234Z" transform="translate(-76.3 -48.58)" fill="#00c9ff" stroke="#000" stroke-miterlimit="10" stroke-width="2"/><path d="M145.9,333.46c-2.35,6.61-7.68,10.76-11.9,9.26s-5.73-8.08-3.38-14.69,24.8-51.21,25.24-46.75C156.54,288.07,148.25,326.85,145.9,333.46Z" transform="translate(-76.3 -48.58)" fill="#00c9ff" stroke="#000" stroke-miterlimit="10" stroke-width="2"/><path d="M208.9,301.56c-2.35,6.61-7.68,10.75-11.9,9.25s-5.73-8.08-3.38-14.69,24.79-51.21,25.24-46.75C219.53,256.17,211.25,295,208.9,301.56Z" transform="translate(-76.3 -48.58)" fill="#00c9ff" stroke="#000" stroke-miterlimit="10" stroke-width="2"/><path d="M294.33,327c-2.35,6.61-7.68,10.76-11.9,9.25s-5.73-8.07-3.38-14.68,24.79-51.21,25.24-46.75C305,281.61,296.68,320.39,294.33,327Z" transform="translate(-76.3 -48.58)" fill="#00c9ff" stroke="#000" stroke-miterlimit="10" stroke-width="2"/><path d="M281.14,287c-2.35,6.62-7.68,10.76-11.9,9.26s-5.74-8.08-3.38-14.69,24.79-51.21,25.23-46.75C291.77,241.61,283.49,280.38,281.14,287Z" transform="translate(-76.3 -48.58)" fill="#00c9ff" stroke="#000" stroke-miterlimit="10" stroke-width="2"/><path d="M240,354.05c-2.35,6.61-7.67,10.75-11.89,9.25s-5.74-8.08-3.39-14.69,24.8-51.21,25.24-46.75C250.64,308.66,242.36,347.44,240,354.05Z" transform="translate(-76.3 -48.58)" fill="#00c9ff" stroke="#000" stroke-miterlimit="10" stroke-width="2"/><path d="M270.64,422.83c-2.35,6.61-7.68,10.76-11.9,9.26S253,424,255.36,417.4s24.79-51.21,25.24-46.75C281.27,377.44,273,416.22,270.64,422.83Z" transform="translate(-76.3 -48.58)" fill="#00c9ff" stroke="#000" stroke-miterlimit="10" stroke-width="2"/><path d="M93.69,375.2c-2.35,6.61-7.68,10.75-11.9,9.25s-5.74-8.08-3.38-14.69S103.2,318.55,103.64,323C104.32,329.81,96,368.59,93.69,375.2Z" transform="translate(-76.3 -48.58)" fill="#00c9ff" stroke="#000" stroke-miterlimit="10" stroke-width="2"/><path d="M163,406.37c-2.35,6.61-7.68,10.75-11.9,9.25s-5.74-8.08-3.38-14.69,24.79-51.21,25.23-46.75C173.64,361,165.36,399.75,163,406.37Z" transform="translate(-76.3 -48.58)" fill="#00c9ff" stroke="#000" stroke-miterlimit="10" stroke-width="2"/></svg>