<svg id="Layer_1" data-name="Layer 1" xmlns="http://www.w3.org/2000/svg" viewBox="0 0 264.7 128.41"><path d="M368.64,140.23c0-17.88-20.19-32.37-45.09-32.37A58.87,58.87,0,0,0,301,112.2h0c0-12-23.16-21.68-51.73-21.68A113.88,113.88,0,0,0,226,92.84,34.79,34.79,0,0,0,188.78,89a25.07,25.07,0,0,0-12.91-3.67c-15.62,0-28.67,15.14-31.89,35.36a26.87,26.87,0,0,0-6-.68c-16,0-28.9,14-28.9,31.22a32.71,32.71,0,0,0,6,19,19.61,19.61,0,0,0-1.9,8.35c0,15.08,17.86,27.31,39.88,27.31a51.59,51.59,0,0,0,26.08-6.65,53.92,53.92,0,0,0,18-3.15,43,43,0,0,0,16.61,3.16c1.68,0,3.33-.1,4.94-.26,6.75,4.07,21.79,6.9,39.28,6.9,11.76,0,22.41-1.28,30.18-3.36,3.42-.5,6.74-1.13,9.94-1.89a27.3,27.3,0,0,0,42.37-29.48c.1-.31.2-.62.28-.94C357.1,165.31,368.64,153.74,368.64,140.23Z" transform="translate(-105.59 -81.36)" fill="#fff"/><path d="M367,140.23A24.75,24.75,0,0,0,359.73,122c-.59-.63-1.24-1.19-1.87-1.78s-1.32-1.1-2-1.59a36,36,0,0,0-4.36-2.76,47.71,47.71,0,0,0-9.53-3.93,56.24,56.24,0,0,0-10.1-1.92,61.32,61.32,0,0,0-10.23,0,51,51,0,0,0-19.25,5.44h0l-3.82,1.76-1-5a7.67,7.67,0,0,0-1.39-3,14.89,14.89,0,0,0-2.75-2.75,31.69,31.69,0,0,0-3.66-2.4c-1.34-.72-2.75-1.37-4.18-2a87.73,87.73,0,0,0-18.78-5.18,131.11,131.11,0,0,0-19.95-1.72,139.37,139.37,0,0,0-20.1,1.15h0l-1.73.25-1.17-.93a31.14,31.14,0,0,0-16.2-6.6,31.08,31.08,0,0,0-17.21,3.11h0l-1.58.8L187,92a23.91,23.91,0,0,0-6.59-2.37,21.85,21.85,0,0,0-6.8-.17,23.58,23.58,0,0,0-12.23,6,34.06,34.06,0,0,0-4.84,5.31c-.66,1-1.43,2-2,3.07a14.69,14.69,0,0,1-2.09,3.08,7.07,7.07,0,0,0-1.16,1.54l-.8,1.72a37.42,37.42,0,0,0-1.38,3.56c-.41,1.2-.69,2.46-1,3.69s-.45,2.52-.63,3.79v0l-.56,3.68-3.67-.82a23.9,23.9,0,0,0-3.95-.54,13.22,13.22,0,0,0-2,0c-.66,0-1.33,0-2,.13a24.46,24.46,0,0,0-14.13,6.92,28.79,28.79,0,0,0-2.7,3l-1.16,1.67c-.4.54-.68,1.17-1,1.75a27.52,27.52,0,0,0-2.87,7.62c-.08.33-.17.66-.23,1l-.15,1c-.07.68-.23,1.35-.25,2a35.24,35.24,0,0,0-.08,4.11,29.2,29.2,0,0,0,5.22,15.29l0,0,1.16,1.71-.85,1.8a15.78,15.78,0,0,0-1.42,8.89,17.52,17.52,0,0,0,3.7,8.41,28.18,28.18,0,0,0,7.36,6.47,40.8,40.8,0,0,0,9.26,4.19,50.17,50.17,0,0,0,5,1.28c.84.16,1.69.33,2.55.44s1.77-.21,2.6,0a66.25,66.25,0,0,0,10.38.77A38.29,38.29,0,0,0,168,200.54a33,33,0,0,0,9.33-4.35l0,0,.45-.31,1.29-.18c2.88-.39,5.7-.77,8.48-1.28,1.39-.26,2.76-.57,4.14-.84s2.75-.57,4.17-.79h0l1.17-.53,1.4.59a37.17,37.17,0,0,0,9.65,2.52,42.55,42.55,0,0,0,5.05.35c1.7,0,3.38-.17,5.07-.23h.06l1.26-.06.91.54a32.69,32.69,0,0,0,7.3,3,76.55,76.55,0,0,0,8.25,1.84,130,130,0,0,0,17.13,1.66,148.49,148.49,0,0,0,17.27-.47,100.26,100.26,0,0,0,16.82-2.79l.17,0,.22,0q4.83-.75,9.56-1.9h.06l2-.21.84.79a21.68,21.68,0,0,0,13.74,5.66,23.3,23.3,0,0,0,14.63-4.23,24.27,24.27,0,0,0,5.53-5.41c.36-.54.78-1,1.09-1.6l1-1.68a22.35,22.35,0,0,0,1.43-3.57,21.64,21.64,0,0,0,1.06-7.52,20.19,20.19,0,0,0-1.47-7.31l0,0-.31-.84.34-1.15.22-.74,0,0,.61-2,1.78-.44a49.71,49.71,0,0,0,9.67-3.44,38.58,38.58,0,0,0,8.52-5.62,28.55,28.55,0,0,0,6.35-7.84A22.65,22.65,0,0,0,367,140.23Zm3.26,0A26.42,26.42,0,0,1,368,151.7a33,33,0,0,1-6.6,9.69,44.35,44.35,0,0,1-9.17,7.2,56.53,56.53,0,0,1-10.54,4.93l2.39-2.47,0,.08-.29,1,0-2,0,.07a32.34,32.34,0,0,1,.44,9.4,30.27,30.27,0,0,1-2.12,9,29.66,29.66,0,0,1-4.58,7.9,30.73,30.73,0,0,1-6.62,6.21,32.49,32.49,0,0,1-8.14,4,33.85,33.85,0,0,1-9,1.5,33.26,33.26,0,0,1-17.8-4.82l2.86.58-.06,0q-5.06,1.14-10.18,1.85l.39-.08a108.06,108.06,0,0,1-18,2.88,159.73,159.73,0,0,1-18,.41,133.78,133.78,0,0,1-18-1.63,84.71,84.71,0,0,1-9-1.94,39,39,0,0,1-9-3.58l2.17.49H219c-2,.09-3.92.25-5.87.27a50,50,0,0,1-5.86-.41,44.33,44.33,0,0,1-11.48-3l2.57.06-.05,0a22.14,22.14,0,0,1-4.58,1.93,32,32,0,0,1-4.8,1.08,38.41,38.41,0,0,1-9.75.33l1.75-.49-.06,0a65.91,65.91,0,0,1-11.07,4.43,84.21,84.21,0,0,1-11.53,2.47,54.62,54.62,0,0,1-11.86.53c-1,0-1.92-.61-2.91-.72s-1.95-.36-2.92-.55c-1.94-.44-3.86-1-5.76-1.58a48.11,48.11,0,0,1-10.87-5.17,35.11,35.11,0,0,1-9.12-8.32,25.26,25.26,0,0,1-5-11.83,22.86,22.86,0,0,1,2-12.78l.32,3.51,0,0a36.08,36.08,0,0,1-6.54-19,42.76,42.76,0,0,1,.08-5.06c0-.84.2-1.67.3-2.51l.18-1.26c.08-.41.19-.82.28-1.23a35,35,0,0,1,3.56-9.5c.43-.73.79-1.5,1.29-2.19l1.45-2.1a36.35,36.35,0,0,1,3.4-3.83,30.69,30.69,0,0,1,8.37-5.92,31.38,31.38,0,0,1,9.9-2.91c.86-.1,1.72-.11,2.59-.16a18.66,18.66,0,0,1,2.59,0,30.49,30.49,0,0,1,5.12.72l-4.23,2.86v0c.35-1.4.61-2.81.95-4.21s.68-2.8,1.12-4.17.8-2.78,1.33-4.13a28.48,28.48,0,0,0,1.35-4.19,9.77,9.77,0,0,1,.67-2.15c.36-.65.75-1.28,1.13-1.92.71-1.3,1.65-2.49,2.49-3.73A40.44,40.44,0,0,1,155.78,89a32.21,32.21,0,0,1,7.81-5l2.18-.9c.74-.26,1.51-.46,2.27-.68l1.14-.32,1.17-.2c.79-.12,1.57-.28,2.35-.36A27.77,27.77,0,0,1,190.57,86l-3.36-.12,0,0A38.25,38.25,0,0,1,208.3,82a38.26,38.26,0,0,1,19.83,8.08l-2.9-.68h0A95.5,95.5,0,0,1,246.61,86a108.9,108.9,0,0,1,21.7,1,73,73,0,0,1,21.28,6.23,35.65,35.65,0,0,1,9.72,6.76,19.8,19.8,0,0,1,3.83,5.3,13.53,13.53,0,0,1,1.37,6.94L299.67,109h0a66.74,66.74,0,0,1,21.8-3.17,68.36,68.36,0,0,1,10.8,1,59.12,59.12,0,0,1,10.42,2.8,52.68,52.68,0,0,1,9.7,4.64,48.24,48.24,0,0,1,8.43,6.64c.65.62,1.26,1.28,1.87,1.94s1.18,1.37,1.72,2.1a30.38,30.38,0,0,1,3,4.58A25.54,25.54,0,0,1,370.27,140.23Z" transform="translate(-105.59 -81.36)"/><path d="M226.17,96.34a27.49,27.49,0,0,0-3.16,0c-1.09,0-2.19.13-3.28.26A34.81,34.81,0,0,0,213.26,98a22.33,22.33,0,0,0-6,2.86,17,17,0,0,0-2.54,2.2,15.22,15.22,0,0,0-2,2.78l-.14-.05a16.85,16.85,0,0,1,1.34-3.32,19.15,19.15,0,0,1,2.11-3,24.89,24.89,0,0,1,5.7-4.72,38.67,38.67,0,0,1,6.69-3.26c1.16-.44,2.34-.84,3.54-1.19a35.09,35.09,0,0,1,3.76-.92Z" transform="translate(-105.59 -81.36)"/><path d="M304.26,110.16c0,.93-.07,1.63-.14,2.42s-.16,1.54-.27,2.29c-.22,1.52-.51,3-.86,4.49a40.82,40.82,0,0,1-3.06,8.54,28.48,28.48,0,0,1-5.2,7.34,22.2,22.2,0,0,1-7.27,4.84l-.07-.12a21.31,21.31,0,0,0,5.91-5.91,25.25,25.25,0,0,0,3.29-7.44,36.2,36.2,0,0,0,1.17-8c.05-1.35,0-2.69,0-4,0-.67-.09-1.33-.17-2s-.16-1.36-.26-1.85Z" transform="translate(-105.59 -81.36)"/></svg>