<svg id="Layer_1" data-name="Layer 1" xmlns="http://www.w3.org/2000/svg" viewBox="0 0 385.55 78.03"><path d="M423.34,203.85h-8.18a2.11,2.11,0,0,0,0-4.21h-84a7.43,7.43,0,1,0,0-14.85h23a8,8,0,0,0,7.93-7.92h0a8,8,0,0,0-7.93-7.92h46.54a6.44,6.44,0,1,0,0-12.87H383.31a7.2,7.2,0,0,0,1-3.68,7.29,7.29,0,0,0-7.27-7.27H127.32a7.27,7.27,0,0,0,0,14.54h17a9.31,9.31,0,0,0,9.28,9.28h11.94a8,8,0,0,0-7.93,7.92h0a8,8,0,0,0,7.93,7.92H107.87a7.43,7.43,0,0,0,0,14.85H86.81a2.11,2.11,0,1,0,0,4.21H62.88A7.94,7.94,0,0,0,55,211.77h0a7.94,7.94,0,0,0,7.92,7.92H423.34a7.94,7.94,0,0,0,7.92-7.92h0A7.94,7.94,0,0,0,423.34,203.85Z" transform="translate(-45.71 -141.66)" fill="#0be1f7"/><path d="M414.09,200.38h-8.18a2.1,2.1,0,0,0,0-4.2h-84a7.43,7.43,0,0,0,0-14.86h23a7.94,7.94,0,0,0,7.92-7.92h0a8,8,0,0,0-7.92-7.92h46.53a6.44,6.44,0,1,0,0-12.87H374.06a7.2,7.2,0,0,0,1-3.68,7.29,7.29,0,0,0-7.27-7.27H118.07a7.27,7.27,0,0,0,0,14.54h17a9.31,9.31,0,0,0,9.28,9.28H156.3a7.94,7.94,0,0,0-7.92,7.92h0a7.94,7.94,0,0,0,7.92,7.92H98.63a7.43,7.43,0,1,0,0,14.86H77.56a2.1,2.1,0,1,0,0,4.2H53.63a8,8,0,0,0-7.92,7.92h0a8,8,0,0,0,7.92,7.93H414.09A8,8,0,0,0,422,208.3h0A7.94,7.94,0,0,0,414.09,200.38Z" transform="translate(-45.71 -141.66)" fill="#85f3f9"/></svg>