<svg id="Layer_1" data-name="Layer 1" xmlns="http://www.w3.org/2000/svg" viewBox="0 0 239.29 387.63"><path d="M239,210.79s31.57,41.4,3.32,82.36c-19.56,28.36,35.54,53.54,26.77,81-7,22-4.77,37.79-4.77,37.79" transform="translate(-33.02 -33.62)" fill="none" stroke="#000" stroke-linecap="round" stroke-miterlimit="10"/><path d="M270.6,134.29c5.5,27.06-8,64.73-33,69.83S185.48,179.8,180,152.74s10.31-53.13,35.34-58.22S265.09,107.23,270.6,134.29Z" transform="translate(-33.02 -33.62)" fill="#ef9f6a" stroke="#000" stroke-miterlimit="10"/><ellipse cx="239.36" cy="212.68" rx="10.31" ry="1.92" transform="translate(-70.64 18.4) rotate(-11.51)" fill="#ef9f6a" stroke="#000" stroke-miterlimit="10"/><path d="M234.83,204.43s1.7,5.71-5.62,10.06c0,0,9.54,3,20.2-4.12,0,0-6.24-1.76-8.76-7.13Z" transform="translate(-33.02 -33.62)" fill="#ef9f6a" stroke="#000" stroke-miterlimit="10"/><path d="M225.35,203.24c27,7.79,55.3-32,44.57-69-6.86-23.64-25.12-40.87-47.18-40.62C254.09,121,236.34,161.09,225.35,203.24Z" transform="translate(-33.02 -33.62)" fill="#e08653"/><path d="M238.9,215a27.77,27.77,0,0,0,10-4.25s-6.24-1.76-8.76-7.13l-4.42.9A11.9,11.9,0,0,1,238.9,215Z" transform="translate(-33.02 -33.62)" fill="#e08653"/><path d="M234.05,204.62s1.7,5.71-5.62,10c0,0,9.54,3.05,20.2-4.11,0,0-6.24-1.76-8.76-7.13Z" transform="translate(-33.02 -33.62)" fill="none" stroke="#000" stroke-miterlimit="10"/><path d="M270.6,134.29c5.5,27.06-8,64.73-33,69.83S185.48,179.8,180,152.74s10.31-53.13,35.34-58.22S265.09,107.23,270.6,134.29Z" transform="translate(-33.02 -33.62)" fill="none" stroke="#000" stroke-miterlimit="10"/><ellipse cx="167.23" cy="103.36" rx="9.71" ry="20.2" fill="#fff" opacity="0.36"/><path d="M148.43,164c-7.06,3.27,27.86,12.59,24.67,35.54-3.87,27.87-104.25,77.07-57.19,62.65,84.34-25.86,118.32,60.93,118.32,60.93" transform="translate(-33.02 -33.62)" fill="none" stroke="#000" stroke-linecap="round" stroke-miterlimit="10"/><path d="M206.43,96c-3.14,31.45-27.7,63.91-53.75,61.31S109,118,112.1,86.56,138.9,31.72,165,34.32,209.57,64.52,206.43,96Z" transform="translate(-33.02 -33.62)" fill="#0ceac4" stroke="#000" stroke-miterlimit="10"/><ellipse cx="148.24" cy="165.87" rx="1.92" ry="10.31" transform="translate(-64.56 263.28) rotate(-84.3)" fill="#0ceac4" stroke="#000" stroke-miterlimit="10"/><path d="M146.35,156.65s-.07,6-8.34,7.94c0,0,8.2,5.74,20.51,2,0,0-5.44-3.53-6.26-9.4Z" transform="translate(-33.02 -33.62)" fill="#0ceac4" stroke="#000" stroke-miterlimit="10"/><path d="M186.58,43.75c16,45.25-15.94,86.22-52.4,105.51,21.86,21.18,64.24-5.36,72.25-52.84A56.37,56.37,0,0,0,186.58,43.75Z" transform="translate(-33.02 -33.62)" fill="#1ad8b4"/><path d="M152.68,157.28l-4-.4a10.14,10.14,0,0,1,0,11,27.93,27.93,0,0,0,10.26-1.16S153.5,163.16,152.68,157.28Z" transform="translate(-33.02 -33.62)" fill="#1ad8b4"/><path d="M146.05,156.62s-.06,6-8.34,7.94c0,0,8.21,5.74,20.51,2.05,0,0-5.44-3.53-6.26-9.4Z" transform="translate(-33.02 -33.62)" fill="none" stroke="#000" stroke-miterlimit="10"/><path d="M206.43,96c-3.14,31.45-27.7,63.91-53.75,61.31S109,118,112.1,86.56,138.9,31.72,165,34.32,209.57,64.52,206.43,96Z" transform="translate(-33.02 -33.62)" fill="none" stroke="#000" stroke-miterlimit="10"/><path d="M94.57,227.68c-.71,2.74,63.65,39.24,32.74,90.61-29.17,48.47-60.25,42.89-68.08,68.42s27,34,27,34" transform="translate(-33.02 -33.62)" fill="none" stroke="#000" stroke-linecap="round" stroke-miterlimit="10"/><path d="M130.53,152.44c5.74,29.46-9.47,65.75-35.95,70.9s-54.2-22.76-59.93-52.22,11.07-57.51,37.55-62.67S124.8,123,130.53,152.44Z" transform="translate(-33.02 -33.62)" fill="#e50e42" stroke="#000" stroke-miterlimit="10"/><ellipse cx="96.3" cy="232.16" rx="10.31" ry="1.92" transform="translate(-75.63 -10.93) rotate(-11.02)" fill="#e50e42" stroke="#000" stroke-miterlimit="10"/><path d="M91.84,223.88s1.65,5.73-5.71,10c0,0,9.51,3.13,20.24-3.94,0,0-6.23-1.82-8.7-7.21Z" transform="translate(-33.02 -33.62)" fill="#e50e42" stroke="#000" stroke-miterlimit="10"/><path d="M130.53,151.68c-4.33-23.24-21.68-40.34-41.71-44.05,35.7,24.36,2.85,68.12-13.51,114C99.67,235.81,139,197.07,130.53,151.68Z" transform="translate(-33.02 -33.62)" fill="#d60541"/><path d="M94.57,234.48a27.3,27.3,0,0,0,11.8-4.44s-6.23-1.81-8.7-7.21l-3.1.61C97.19,226.33,96.56,230.21,94.57,234.48Z" transform="translate(-33.02 -33.62)" fill="#d60541"/><path d="M91.89,223.88s1.65,5.73-5.71,10c0,0,9.51,3.13,20.24-3.94,0,0-6.23-1.82-8.7-7.21Z" transform="translate(-33.02 -33.62)" fill="none" stroke="#000" stroke-miterlimit="10"/><path d="M130.53,152.44c5.74,29.46-9.47,65.75-35.95,70.9s-54.2-22.76-59.93-52.22,11.07-57.51,37.55-62.67S124.8,123,130.53,152.44Z" transform="translate(-33.02 -33.62)" fill="none" stroke="#000" stroke-miterlimit="10"/><ellipse cx="52.61" cy="151.88" rx="20.2" ry="9.71" transform="translate(-139.74 139.47) rotate(-78.48)" fill="#fff" opacity="0.36"/><ellipse cx="134.18" cy="76.64" rx="20.2" ry="9.71" transform="translate(-15.49 144.37) rotate(-70.72)" fill="#fff" opacity="0.36"/></svg>