<svg id="Layer_1" data-name="Layer 1" xmlns="http://www.w3.org/2000/svg" viewBox="0 0 325.05 109.29"><path d="M205.79,223H165a9.59,9.59,0,0,1-9.17-7c0,.12-.07.23-.1.35A9.57,9.57,0,0,0,165,228.19h34.51A6.37,6.37,0,0,1,205.79,223Z" transform="translate(-105.22 -188.3)" fill="#0be1f7"/><path d="M192.36,245.64a7.87,7.87,0,0,0-.07,5h4.92A8.14,8.14,0,0,1,192.36,245.64Z" transform="translate(-105.22 -188.3)" fill="#0be1f7"/><path d="M202.81,235a6.39,6.39,0,0,1-2.81-3,6.25,6.25,0,0,0-.56,2.6c0,.14,0,.29,0,.43l.54,0Z" transform="translate(-105.22 -188.3)" fill="#0be1f7"/><path d="M265.78,198.69a7.16,7.16,0,0,0-.23.75,7.92,7.92,0,0,0,.23,4.47h7.36A7.83,7.83,0,0,1,265.78,198.69Z" transform="translate(-105.22 -188.3)" fill="#0be1f7"/><path d="M155.85,263.32c0,.19-.1.38-.14.58a10.08,10.08,0,0,0,.59,6h5A10.18,10.18,0,0,1,155.85,263.32Z" transform="translate(-105.22 -188.3)" fill="#0be1f7"/><path d="M388.43,292.4H116.49a11.31,11.31,0,0,1-11-8.7c0,.22-.11.45-.15.68a11.3,11.3,0,0,0,11.11,13.22H388.43a11.47,11.47,0,0,0,11.38-9.13,11.32,11.32,0,0,0-.11-4.72A11.51,11.51,0,0,1,388.43,292.4Z" transform="translate(-105.22 -188.3)" fill="#0be1f7"/><path d="M414.08,273.85H397.33a11.33,11.33,0,0,1,2.48,5.21h14.27a16.24,16.24,0,0,0,16.19-16.19,15.91,15.91,0,0,0-.23-2.6A16.24,16.24,0,0,1,414.08,273.85Z" transform="translate(-105.22 -188.3)" fill="#0be1f7"/><path d="M364.54,235.7h-49a8.17,8.17,0,0,1,4.41,5.21h44.6A6.51,6.51,0,0,0,371,236a6.33,6.33,0,0,0-.4-4A6.61,6.61,0,0,1,364.54,235.7Z" transform="translate(-105.22 -188.3)" fill="#0be1f7"/><path d="M323.42,223h8.48a9.38,9.38,0,0,0,.69-6.94A9.57,9.57,0,0,1,323.42,223Z" transform="translate(-105.22 -188.3)" fill="#0be1f7"/><path d="M341.13,203.91H323.42a9.54,9.54,0,0,1,8.48,5.2h9.23a7.94,7.94,0,0,0,7.8-5.93,7.84,7.84,0,0,0-.23-4.45A8,8,0,0,1,341.13,203.91Z" transform="translate(-105.22 -188.3)" fill="#0be1f7"/><path d="M414.08,273.85a16.24,16.24,0,0,0,16-13.58,15.91,15.91,0,0,0,.23-2.6,16.24,16.24,0,0,0-16.19-16.19h-94c0-.19-.1-.38-.15-.57a8.17,8.17,0,0,0-4.41-5.21h49a6.61,6.61,0,0,0,6-3.74,5.77,5.77,0,0,0,.4-1.17,6.37,6.37,0,0,0-6.2-7.8H323.42a9.57,9.57,0,0,0,9.17-6.94,9.38,9.38,0,0,0-.69-6.94,9.54,9.54,0,0,0-8.48-5.2h17.71a8,8,0,0,0,7.57-5.18,6.65,6.65,0,0,0,.23-.76,7.83,7.83,0,0,0-7.59-9.67h-68a8,8,0,0,0-7.8,5.94,7.83,7.83,0,0,0,7.59,9.67H165.3A9.5,9.5,0,0,0,155.87,216a9.59,9.59,0,0,0,9.17,7h40.75a6.37,6.37,0,0,0-6.24,5.2,6.23,6.23,0,0,0-.11,1.15,6.35,6.35,0,0,0,3.37,5.61H200l-.54,0a8.11,8.11,0,0,0-7.55,8.06h0a8,8,0,0,0,.44,2.6,8.14,8.14,0,0,0,4.85,5h-31.3a10.1,10.1,0,0,0-10.06,12.7,10.18,10.18,0,0,0,5.43,6.53H116.81a11.23,11.23,0,0,0-11.28,13.85,11.31,11.31,0,0,0,11,8.7H388.43a11.51,11.51,0,0,0,11.27-8.65c0-.16.08-.32.11-.48a11.33,11.33,0,0,0-2.48-9.42Z" transform="translate(-105.22 -188.3)" fill="#85f3f9"/></svg>