<svg id="Layer_1" data-name="Layer 1" xmlns="http://www.w3.org/2000/svg" viewBox="0 0 158.29 160.48"><path d="M301.72,261.27l25.42-34a7.46,7.46,0,0,0-6.07-11.93l-41.67.57-22.71-46.13a7.47,7.47,0,0,0-13.39,0L221,215.12l-42.06-.58a7.46,7.46,0,0,0-6.07,11.93l25.65,34.3-26.38,53.58a7.47,7.47,0,0,0,6.7,10.76L250,295.42l71.17,29.69a7.46,7.46,0,0,0,6.69-10.76Z" transform="translate(-170.86 -165.13)" fill="#ff0" stroke="#000" stroke-miterlimit="10"/><path d="M250,165.63a7.35,7.35,0,0,0-6.7,4.16L221,215.12l-42.06-.58a7.46,7.46,0,0,0-6.07,11.93l25.65,34.3-26.38,53.58a7.47,7.47,0,0,0,6.7,10.76c10.67-23.91,50.66-54.2,31.34-70.24-29.7-24.66-43.36-39.47,13.89-31.11C235.07,225.36,237.92,183.85,250,165.63Z" transform="translate(-170.86 -165.13)" fill="#ffce00"/><path d="M257.9,184.42c1.91,3,3.71,6.1,5.56,9.16s3.61,6.15,5.38,9.25l5.27,9.3,2.58,4.68,1.3,2.33a3.64,3.64,0,0,1,.46,2.75,2.58,2.58,0,0,1-3.11,1.92,2.26,2.26,0,0,1-.48-.17,3.59,3.59,0,0,1-1.89-2l-1.05-2.46-2.1-4.92-4.11-9.86q-2-5-4-9.93C260.45,191.09,259.12,187.78,257.9,184.42Z" transform="translate(-170.86 -165.13)" fill="#fff"/><path d="M276.59,220.46l42.13,1.18-42,3.43a2.31,2.31,0,1,1-.37-4.61Z" transform="translate(-170.86 -165.13)" fill="#fff"/><path d="M306.55,246.49a32.91,32.91,0,0,1-3.86,8.52c-.78,1.29-1.64,2.53-2.54,3.73L300,259l-.08.11,0,.05a1.74,1.74,0,0,0-.1.19c0,.14-.12.26-.16.39a2.9,2.9,0,0,0-.09.83,2.07,2.07,0,0,0,.07.41c0,.06,0,.13.06.2l0,.11.12.26c.32.67.63,1.36.92,2.05.61,1.37,1.14,2.79,1.64,4.21a39.56,39.56,0,0,1,2.08,9.08,39.8,39.8,0,0,1-6.36-6.8c-.9-1.21-1.78-2.45-2.58-3.72-.41-.63-.8-1.26-1.18-1.91l-.14-.24-.21-.39a6.85,6.85,0,0,1-.36-.84,8.5,8.5,0,0,1-.41-1.78,7.75,7.75,0,0,1,.45-3.6,7.51,7.51,0,0,1,.83-1.62,7.61,7.61,0,0,1,.55-.72l.15-.17.1-.1.19-.21c1-1.07,2.13-2.11,3.29-3.1A33.25,33.25,0,0,1,306.55,246.49Z" transform="translate(-170.86 -165.13)" fill="#fff"/><path d="M181.73,306.61c19.09-10.49,40.46-18.81,63.58-25.43l.09-.05a6.2,6.2,0,0,1,8.88,3.32c2.6,7.44,9,13.82,16.91,19.81L250,295.42l-71.16,29.69Z" transform="translate(-170.86 -165.13)" fill="#ffce00"/><path d="M301.72,261.27l25.42-34a7.46,7.46,0,0,0-6.07-11.93l-41.67.57-22.71-46.13a7.47,7.47,0,0,0-13.39,0L221,215.12l-42.06-.58a7.46,7.46,0,0,0-6.07,11.93l25.65,34.3-26.38,53.58a7.47,7.47,0,0,0,6.7,10.76L250,295.42l71.17,29.69a7.46,7.46,0,0,0,6.69-10.76Z" transform="translate(-170.86 -165.13)" fill="none" stroke="#000" stroke-miterlimit="10"/></svg>